<svg width="91" height="132" viewBox="0 0 91 132" fill="none" xmlns="http://www.w3.org/2000/svg">
<path d="M0.531372 90.2004V40.915C0.531372 36.3104 1.38987 32.3496 3.10685 29.0327C4.86286 25.6768 7.41883 23.0232 10.7748 21.0721C12.4137 20.1746 13.76 19.1015 14.8136 17.8528C15.9062 16.565 16.7647 14.9846 17.3891 13.1115L19.9646 5.85337C21.2913 1.95112 24.14 0 28.5105 0H56.1384C60.5479 0 63.377 1.95112 64.6257 5.85337L67.2598 13.1115C67.8841 14.9846 68.7231 16.5455 69.7767 17.7942C70.8303 19.0039 72.1961 20.0966 73.8741 21.0721C77.269 23.1013 79.825 25.7743 81.542 29.0912C83.259 32.4081 84.1175 36.3494 84.1175 40.915V90.2004C84.1175 94.805 83.259 98.7658 81.542 102.083C79.825 105.4 77.269 108.073 73.8741 110.102C72.1961 111.077 70.8303 112.17 69.7767 113.38C68.7231 114.628 67.8841 116.189 67.2598 118.062L64.6257 125.262C63.338 129.164 60.5089 131.115 56.1384 131.115H28.5105C24.14 131.115 21.2913 129.164 19.9646 125.262L17.3891 118.062C16.7647 116.189 15.9257 114.628 14.8721 113.38C13.8185 112.17 12.4527 111.077 10.7748 110.102C7.37981 108.073 4.82384 105.4 3.10685 102.083C1.38987 98.7268 0.531372 94.766 0.531372 90.2004ZM11.9454 87.9176C11.9454 92.132 13.0771 95.4294 15.3404 97.8098C17.6427 100.151 20.8426 101.322 24.9399 101.322H59.7089C63.8453 101.322 67.0451 100.151 69.3084 97.8098C71.6108 95.4294 72.7619 92.132 72.7619 87.9176V43.2564C72.7619 39.042 71.6108 35.7446 69.3084 33.3642C67.0451 30.9838 63.8453 29.7936 59.7089 29.7936H24.9399C20.8426 29.7936 17.6427 30.9838 15.3404 33.3642C13.0771 35.7446 11.9454 39.042 11.9454 43.2564V87.9176ZM81.7176 61.8116V41.2662H84.4101C86.1661 41.2662 87.5905 41.8321 88.6831 42.9637C89.7757 44.0954 90.322 45.5977 90.322 47.4708V55.5485C90.322 57.4606 89.7757 58.9824 88.6831 60.1141C87.5905 61.2457 86.1661 61.8116 84.4101 61.8116H81.7176Z" fill="black"/>
</svg>
